<?xml version="1.0" encoding="UTF-8"?>
<svg xmlns="http://www.w3.org/2000/svg" width="35" height="35" viewBox="0 0 35 35" fill="none">
  <g id="icon-spotify">
    <path id="" d="M17.6484 0.212158C20.6646 0.212158 23.5436 1.03474 26.1484 2.5428C28.7533 4.05087 30.8097 6.10732 32.3178 8.71216C33.8259 11.317 34.6484 14.196 34.6484 17.2122C34.6484 20.2968 33.8259 23.1073 32.3178 25.7122C30.8097 28.317 28.7533 30.442 26.1484 31.9501C23.5436 33.4581 20.6646 34.2122 17.6484 34.2122C14.5638 34.2122 11.7533 33.4581 9.14844 31.9501C6.5436 30.442 4.4186 28.317 2.91053 25.7122C1.40247 23.1073 0.648438 20.2968 0.648438 17.2122C0.648438 14.196 1.40247 11.317 2.91053 8.71216C4.4186 6.10732 6.5436 4.05087 9.14844 2.5428C11.7533 1.03474 14.5638 0.212158 17.6484 0.212158ZM24.5718 25.2323C24.846 25.2323 25.0517 25.1638 25.2573 24.9581C25.463 24.7525 25.6 24.4783 25.6 24.2041C25.6 23.9299 25.5315 23.6557 25.3944 23.5186C25.2573 23.3815 25.1202 23.1759 24.9146 23.0388C20.5275 20.4339 15.1121 19.8855 8.6686 21.2565C8.05166 21.3936 7.77747 21.8049 7.77747 22.4218C7.77747 22.696 7.84602 22.9702 8.05166 23.1759C8.18876 23.3815 8.46295 23.4501 8.8057 23.4501C8.94279 23.4501 9.14844 23.4501 9.49118 23.3815L9.62828 23.313C15.2492 22.1476 19.9791 22.696 23.8178 24.9581C24.092 25.1638 24.2976 25.2323 24.5718 25.2323ZM26.4226 20.7081C26.7654 20.7081 27.0396 20.6396 27.3138 20.3654C27.588 20.0912 27.725 19.817 27.725 19.4057C27.725 18.8573 27.4509 18.3775 26.971 18.0347C25.2573 17.0751 23.338 16.321 21.2815 15.7726C19.1565 15.2243 16.963 14.9501 14.7694 14.9501C12.5073 14.9501 10.3138 15.2928 8.12021 15.8412C7.36618 16.1154 7.02344 16.5952 7.02344 17.2807C7.02344 17.692 7.16053 17.9662 7.43473 18.2404C7.70892 18.5146 7.98311 18.5831 8.3944 18.5831C8.5315 18.5831 8.6686 18.5831 8.94279 18.5146L9.21699 18.446C11.9589 17.692 14.838 17.4864 17.9226 17.8976C20.8017 18.3089 23.338 19.2001 25.5315 20.4339L25.6686 20.5025C25.9428 20.6396 26.1484 20.7081 26.4226 20.7081ZM28.5476 15.4984C28.9589 15.4984 29.3017 15.3614 29.6444 15.0872C29.9186 14.813 30.1242 14.4017 30.1242 13.9218C30.1242 13.2364 29.7815 12.7565 29.2331 12.3452C27.3138 11.317 25.1202 10.4944 22.6525 9.87748C20.1847 9.32909 17.717 9.0549 15.1807 9.0549C12.1646 9.0549 9.42263 9.46619 7.09199 10.1517C6.74924 10.2888 6.47505 10.4259 6.2694 10.7001C5.99521 10.9743 5.92666 11.3855 5.92666 11.7968C5.92666 12.2081 6.06376 12.6194 6.33795 12.8936C6.61215 13.2364 7.02344 13.3734 7.50328 13.3734C7.64037 13.3734 7.91457 13.3734 8.25731 13.2364L8.3944 13.1678C11.2734 12.4138 14.5638 12.2081 18.2654 12.5509C22.1041 12.9622 25.1888 13.8533 27.6565 15.2243C27.9307 15.4299 28.2049 15.4984 28.5476 15.4984Z" fill="#1DB954"></path>
  </g>
</svg>
