<?xml version="1.0" encoding="UTF-8"?>
<svg xmlns="http://www.w3.org/2000/svg" width="35" height="35" viewBox="0 0 35 35" fill="none">
  <g id="icon-yt">
    <path id="youtube" d="M33.8768 9.07576C34.6221 11.6843 34.6221 17.2742 34.6221 17.2742C34.6221 17.2742 34.6221 22.8019 33.8768 25.4726C33.5041 26.9632 32.3241 28.0811 30.8956 28.4538C28.2249 29.137 17.6663 29.137 17.6663 29.137C17.6663 29.137 7.04567 29.137 4.37498 28.4538C2.94647 28.0811 1.7664 26.9632 1.39375 25.4726C0.648437 22.8019 0.648438 17.2742 0.648438 17.2742C0.648438 17.2742 0.648437 11.6843 1.39375 9.07576C1.7664 7.58515 2.94647 6.40507 4.37498 6.03242C7.04567 5.28711 17.6663 5.28711 17.6663 5.28711C17.6663 5.28711 28.2249 5.28711 30.8956 6.03242C32.3241 6.40507 33.5041 7.58515 33.8768 9.07576ZM14.1882 22.305L23.0077 17.2742L14.1882 12.2433V22.305Z" fill="#FF0000"></path>
  </g>
</svg>
