<?xml version="1.0" encoding="UTF-8"?>
<svg xmlns="http://www.w3.org/2000/svg" width="35" height="35" viewBox="0 0 35 35" fill="none">
  <g id="icon-apple">
    <path id="icon-apple_2" d="M19.9696 33.3059C20.2347 32.2434 20.566 30.7825 20.8973 28.9895C21.1624 26.9973 21.3612 25.5364 21.3612 24.4739C21.3612 22.5481 19.9034 21.552 17.1203 21.552C14.271 21.552 12.8794 22.5481 12.8794 24.4739C12.8794 25.5364 13.0119 26.9973 13.3433 28.9895C13.6083 30.7825 13.9396 32.177 14.2047 33.2395C14.4697 34.302 15.4637 34.8333 17.1203 34.8333C18.7106 34.8333 19.7046 34.3684 19.9696 33.3059ZM9.69876 16.2395C9.69876 18.0989 10.2951 19.759 11.5541 21.1536C11.6867 21.3528 11.6867 21.552 11.6204 21.6848C11.2228 22.2161 11.024 22.7473 10.8915 23.345C10.8252 23.5442 10.6927 23.677 10.5602 23.677C10.4277 23.7434 10.2951 23.677 10.2289 23.5442C9.16865 22.6145 8.37349 21.552 7.84338 20.2903C7.31327 19.0286 7.04822 17.7004 7.04822 16.2395C7.04822 14.4465 7.4458 12.7864 8.37349 11.259C9.23492 9.73169 10.4277 8.53638 11.9517 7.60669C13.4758 6.677 15.1324 6.21216 16.9878 6.14575C18.7769 6.14575 20.4335 6.54419 22.0238 7.47388C23.6141 8.40356 24.8731 9.59888 25.8008 11.1262C26.7285 12.72 27.1924 14.3801 27.1924 16.1731C27.1924 17.634 26.861 19.0286 26.3309 20.2903C25.8008 21.552 25.0057 22.6145 24.0117 23.5442C23.8792 23.677 23.7467 23.7434 23.6141 23.677C23.4816 23.677 23.3491 23.5442 23.3491 23.345C23.2165 22.7473 22.9515 22.2161 22.6202 21.6848C22.4876 21.552 22.5539 21.3528 22.6864 21.1536C23.8792 19.759 24.5418 18.0989 24.5418 16.2395C24.5418 14.9114 24.1442 13.6497 23.4816 12.5208C22.819 11.3918 21.8913 10.4622 20.6985 9.7981C19.5058 9.13403 18.313 8.802 16.9878 8.802C15.6625 8.86841 14.4035 9.20044 13.277 9.8645C12.1505 10.5286 11.2891 11.4583 10.6265 12.5872C9.96382 13.7161 9.69876 14.9114 9.69876 16.2395ZM17.1866 0.833252C19.9696 0.833252 22.6202 1.56372 25.0057 2.95825C27.3912 4.41919 29.2465 6.27856 30.6381 8.66919C32.0296 11.0598 32.7585 13.7161 32.7585 16.5051C32.7585 19.6926 31.8308 22.6145 30.108 25.2043C28.3851 27.7942 26.0659 29.72 23.2828 30.9153C23.1503 30.9817 23.0178 30.9817 22.8852 30.8489C22.7527 30.7825 22.7527 30.6497 22.7527 30.4504L23.1503 28.259C23.1503 28.1262 23.2165 28.0598 23.3491 27.927C25.337 26.8645 26.9936 25.2708 28.2526 23.2122C29.4453 21.22 30.108 18.9622 30.108 16.5715C30.108 14.1809 29.5116 11.9895 28.3188 9.99731C27.1261 8.00513 25.602 6.47778 23.6141 5.28247C21.6262 4.08716 19.4395 3.4895 17.1203 3.4895C14.7348 3.4895 12.6144 4.08716 10.6265 5.28247C8.63854 6.47778 7.04822 8.00513 5.85547 9.99731C4.66272 11.9895 4.13261 14.1809 4.13261 16.5715C4.13261 18.9622 4.72899 21.22 6.05426 23.2786C7.24701 25.2708 8.83733 26.8645 10.8915 27.927C11.024 28.0598 11.0903 28.1262 11.0903 28.259L11.4879 30.4504C11.4879 30.6497 11.4216 30.7825 11.2891 30.8489C11.1566 30.9817 11.0903 30.9817 10.9578 30.9153C8.04217 29.72 5.72294 27.7942 4.00009 25.1379C2.27723 22.4817 1.4158 19.5598 1.48207 16.3723C1.48207 13.5833 2.21097 10.927 3.60251 8.53638C4.99404 6.14575 6.91569 4.28638 9.30118 2.89185C11.6867 1.56372 14.271 0.833252 17.1866 0.833252ZM17.1203 11.4583C18.313 11.4583 19.307 11.9231 20.1022 12.72C20.8973 13.5168 21.3612 14.5129 21.3612 15.7083C21.3612 16.9036 20.8973 17.9661 20.1022 18.7629C19.307 19.5598 18.313 19.9583 17.1203 19.9583C15.9275 19.9583 14.8673 19.5598 14.0722 18.7629C13.277 17.9661 12.8794 16.9036 12.8794 15.7083C12.8794 14.5129 13.277 13.5168 14.0722 12.72C14.8673 11.9231 15.9275 11.4583 17.1203 11.4583Z" fill="#A446D8"></path>
  </g>
</svg>
