<?xml version="1.0" encoding="UTF-8"?> <svg xmlns="http://www.w3.org/2000/svg" width="14" height="14" viewBox="0 0 14 14" fill="none"><path d="M11.0625 5.40234C11.0625 6.57031 10.6816 7.66211 10.0469 8.52539L13.2461 11.75C13.5762 12.0547 13.5762 12.5879 13.2461 12.8926C12.9414 13.2227 12.4082 13.2227 12.1035 12.8926L8.87891 9.66797C8.01562 10.3281 6.92383 10.6836 5.78125 10.6836C2.86133 10.6836 0.5 8.32227 0.5 5.40234C0.5 2.50781 2.86133 0.121094 5.78125 0.121094C8.67578 0.121094 11.0625 2.50781 11.0625 5.40234ZM5.78125 9.05859C7.07617 9.05859 8.26953 8.37305 8.92969 7.23047C9.58984 6.11328 9.58984 4.7168 8.92969 3.57422C8.26953 2.45703 7.07617 1.74609 5.78125 1.74609C4.46094 1.74609 3.26758 2.45703 2.60742 3.57422C1.94727 4.7168 1.94727 6.11328 2.60742 7.23047C3.26758 8.37305 4.46094 9.05859 5.78125 9.05859Z" fill="white"></path></svg> 