<?xml version="1.0" encoding="UTF-8"?> <svg xmlns="http://www.w3.org/2000/svg" width="140" height="26" viewBox="0 0 140 26" fill="none"><path d="M11.3029 3.17961C11.5421 2.43489 12.5958 2.43489 12.835 3.17961L14.5992 8.67207C14.7061 9.0049 15.0157 9.23061 15.3653 9.23061H21.0938C21.871 9.23061 22.1966 10.2233 21.5703 10.6835L16.9199 14.1013C16.6412 14.3062 16.5246 14.6663 16.6304 14.9957L18.4029 20.5141C18.6415 21.257 17.7891 21.8706 17.1604 21.4085L12.5455 18.0167C12.262 17.8084 11.876 17.8084 11.5925 18.0167L6.97757 21.4085C6.34881 21.8706 5.4964 21.257 5.73503 20.5141L7.50754 14.9957C7.61334 14.6663 7.49675 14.3062 7.21798 14.1013L2.56761 10.6835C1.94136 10.2233 2.26691 9.23061 3.0441 9.23061H8.77267C9.12224 9.23061 9.43182 9.0049 9.53872 8.67207L11.3029 3.17961Z" fill="#F8C43B"></path><path d="M40.2682 3.17961C40.5074 2.43489 41.5611 2.43489 41.8003 3.17961L43.5645 8.67207C43.6714 9.0049 43.981 9.23061 44.3305 9.23061H50.0591C50.8363 9.23061 51.1618 10.2233 50.5356 10.6835L45.8852 14.1013C45.6065 14.3062 45.4899 14.6663 45.5957 14.9957L47.3682 20.5141C47.6068 21.257 46.7544 21.8706 46.1256 21.4085L41.5107 18.0167C41.2272 17.8084 40.8412 17.8084 40.5577 18.0167L35.9428 21.4085C35.3141 21.8706 34.4617 21.257 34.7003 20.5141L36.4728 14.9957C36.5786 14.6663 36.462 14.3062 36.1833 14.1013L31.5329 10.6835C30.9066 10.2233 31.2322 9.23061 32.0094 9.23061H37.7379C38.0875 9.23061 38.3971 9.0049 38.504 8.67207L40.2682 3.17961Z" fill="#F8C43B"></path><path d="M69.2338 3.17961C69.473 2.43489 70.5267 2.43489 70.7659 3.17961L72.5301 8.67207C72.637 9.0049 72.9465 9.23061 73.2961 9.23061H79.0247C79.8019 9.23061 80.1274 10.2233 79.5012 10.6835L74.8508 14.1013C74.572 14.3062 74.4554 14.6663 74.5612 14.9957L76.3338 20.5141C76.5724 21.257 75.72 21.8706 75.0912 21.4085L70.4763 18.0167C70.1928 17.8084 69.8068 17.8084 69.5233 18.0167L64.9084 21.4085C64.2797 21.8706 63.4272 21.257 63.6659 20.5141L65.4384 14.9957C65.5442 14.6663 65.4276 14.3062 65.1488 14.1013L60.4985 10.6835C59.8722 10.2233 60.1978 9.23061 60.9749 9.23061H66.7035C67.0531 9.23061 67.3627 9.0049 67.4696 8.67207L69.2338 3.17961Z" fill="#F8C43B"></path><path d="M98.1993 3.17961C98.4385 2.43489 99.4922 2.43489 99.7314 3.17961L101.496 8.67207C101.603 9.0049 101.912 9.23061 102.262 9.23061H107.99C108.767 9.23061 109.093 10.2233 108.467 10.6835L103.816 14.1013C103.538 14.3062 103.421 14.6663 103.527 14.9957L105.299 20.5141C105.538 21.257 104.686 21.8706 104.057 21.4085L99.4419 18.0167C99.1584 17.8084 98.7724 17.8084 98.4889 18.0167L93.874 21.4085C93.2452 21.8706 92.3928 21.257 92.6315 20.5141L94.404 14.9957C94.5098 14.6663 94.3932 14.3062 94.1144 14.1013L89.464 10.6835C88.8378 10.2233 89.1633 9.23061 89.9405 9.23061H95.6691C96.0187 9.23061 96.3282 9.0049 96.4351 8.67207L98.1993 3.17961Z" fill="#F8C43B"></path><path d="M127.165 3.17961C127.404 2.43489 128.458 2.43489 128.697 3.17961L130.461 8.67207C130.568 9.0049 130.878 9.23061 131.227 9.23061H136.956C137.733 9.23061 138.059 10.2233 137.432 10.6835L132.782 14.1013C132.503 14.3062 132.387 14.6663 132.492 14.9957L134.265 20.5141C134.504 21.257 133.651 21.8706 133.022 21.4085L128.407 18.0167C128.124 17.8084 127.738 17.8084 127.454 18.0167L122.84 21.4085C122.211 21.8706 121.358 21.257 121.597 20.5141L123.37 14.9957C123.475 14.6663 123.359 14.3062 123.08 14.1013L118.43 10.6835C117.803 10.2233 118.129 9.23061 118.906 9.23061H124.635C124.984 9.23061 125.294 9.0049 125.401 8.67207L127.165 3.17961Z" fill="#F8C43B"></path></svg> 